<svg width="183" height="54" viewBox="0 0 183 54" fill="none" xmlns="http://www.w3.org/2000/svg">
<g filter="url(#filter0_d_1_907)">
<path d="M103.138 15.925C103.138 10.85 103.225 6.125 103.487 1.75L90.1 4.2875V5.5125L91.4125 5.6875C92.375 5.775 92.9875 6.125 93.3375 6.65C93.6875 7.2625 93.95 8.1375 94.125 9.45C94.3 11.9875 94.475 17.7625 94.3875 26.8625C94.3875 35.875 94.3 41.5625 94.125 43.75C98.9375 44.8 102.7 45.2375 105.5 45.2375C110.75 45.2375 114.863 43.75 117.838 40.6875C120.813 37.7125 122.388 33.5125 122.388 28.35C122.388 24.2375 121.25 20.825 118.975 18.1125C116.7 15.4 113.812 14.0875 110.4 14.0875C108.125 14.0875 105.763 14.7 103.138 15.925V15.925ZM103.4 42.875C103.225 40.075 103.05 31.675 103.05 17.9375C103.837 17.675 104.888 17.5 106.2 17.5C108.3 17.5 109.963 18.55 111.188 20.7375C112.412 22.925 113.025 25.55 113.025 28.875C113.025 32.9875 112.325 36.3125 110.925 39.1125C109.525 41.825 107.775 43.225 105.587 43.225C104.887 43.05 104.187 42.9625 103.4 42.875V42.875ZM39.875 2.625H4.875V4.375L6.7125 4.55C8.1125 4.8125 9.075 5.3375 9.6875 6.125C10.3 7 10.65 8.4 10.7375 10.325C11.4375 19.775 11.4375 28.6125 10.7375 36.75C10.5625 38.675 10.2125 40.075 9.6875 40.95C9.075 41.825 8.1125 42.35 6.7125 42.525L4.875 42.7875V44.5375H27.45V42.7875L25.0875 42.6125C23.6875 42.4375 22.725 41.825 22.1125 41.0375C21.5 40.1625 21.15 38.7625 21.0625 36.8375C20.8 33.3375 20.625 29.3125 20.625 24.85L25.35 24.9375C27.8875 25.025 29.6375 26.95 30.5125 30.8H32.2625V16.5375H30.5125C29.6375 20.3 27.975 22.225 25.35 22.3125L20.625 22.4C20.625 14.525 20.8 8.925 21.0625 5.5125H27.975C32.875 5.5125 36.2 8.6625 38.125 14.9625L40.225 14.35L39.875 2.625ZM35.7625 29.575C35.7625 34.125 37.075 37.8875 39.6125 40.8625C42.15 43.8375 45.9125 45.2375 50.6375 45.2375C55.3625 45.2375 59.2125 43.75 62.0125 40.6875C64.8125 37.7125 66.125 33.95 66.125 29.4C66.125 24.85 64.8125 21.0875 62.275 18.1125C59.7375 15.1375 55.975 13.7375 51.25 13.7375C46.525 13.7375 42.675 15.225 39.875 18.2875C37.075 21.2625 35.7625 25.025 35.7625 29.575V29.575ZM55.275 19.6C56.325 22.1375 56.7625 25.4625 56.7625 29.4875C56.7625 38.7625 54.8375 43.3125 51.075 43.3125C49.15 43.3125 47.6625 42 46.6125 39.375C45.5625 36.75 45.125 33.425 45.125 29.4875C45.125 20.3 47.05 15.75 50.8125 15.75C52.7375 15.6625 54.225 16.975 55.275 19.6V19.6ZM129.213 40.8625C132.1 43.75 135.775 45.2375 140.15 45.2375C142.863 45.2375 145.225 44.7125 147.325 43.575C149.425 42.525 151.087 41.2125 152.225 39.6375L151.35 38.5875C149.425 40.075 147.238 40.775 144.7 40.775C141.2 40.775 138.488 39.6375 136.65 37.275C134.725 34.9125 133.85 31.9375 134.025 28.0875H152.75C152.75 23.8875 151.7 20.475 149.513 17.7625C147.325 15.1375 144.263 13.825 140.325 13.825C135.425 13.825 131.663 15.4 128.95 18.4625C126.238 21.525 124.925 25.2875 124.925 29.75C124.925 34.3 126.325 37.975 129.213 40.8625V40.8625ZM135.688 18.9C136.65 16.8 137.875 15.75 139.537 15.75C142.162 15.75 143.475 19.075 143.475 25.8125L134.2 25.9875C134.288 23.3625 134.725 21 135.688 18.9ZM176.287 15.4C173.925 14.35 170.95 13.7375 167.362 13.7375C163.687 13.7375 160.8 14.7 158.612 16.5375C156.425 18.375 155.287 20.65 155.287 23.3625C155.287 25.725 155.987 27.5625 157.3 28.875C158.612 30.1875 160.712 31.325 163.425 32.2875C165.875 33.1625 167.625 34.0375 168.5 34.825C169.375 35.7 169.9 36.6625 169.9 37.975C169.9 39.2 169.463 40.3375 168.5 41.2125C167.625 42.175 166.4 42.6125 164.825 42.6125C160.975 42.6125 158.088 39.8125 156.075 34.2125L154.588 34.65L154.938 43.4C158.087 44.625 161.587 45.2375 165.438 45.2375C169.462 45.2375 172.525 44.3625 174.8 42.525C177.075 40.775 178.213 38.2375 178.213 35.0875C178.213 32.9875 177.687 31.2375 176.55 29.925C175.412 28.6125 173.575 27.475 170.95 26.425C168.063 25.375 166.05 24.4125 165 23.5375C163.95 22.6625 163.425 21.6125 163.425 20.3C163.425 18.9875 163.775 17.9375 164.562 17.0625C165.35 16.1875 166.312 15.8375 167.537 15.8375C171.037 15.8375 173.575 18.375 175.15 23.3625L176.638 22.925L176.287 15.4ZM92.1125 14.6125C90.8875 14 89.575 13.7375 88.0875 13.7375C86.6 13.7375 85.1125 14.35 83.45 15.575C81.7875 16.8 80.5625 18.4625 79.6 20.7375L79.6875 13.7375L66.3875 16.3625V17.5875L67.7 17.675C69.3625 17.85 70.325 19.1625 70.5 21.525C71.025 26.95 71.025 32.725 70.5 38.85C70.325 41.2125 69.3625 42.4375 67.7 42.7L66.3875 42.875V44.5375H84.9375V42.875L82.575 42.7C80.9125 42.525 79.95 41.2125 79.775 38.85C79.25 33.775 79.1625 28.35 79.6 22.75C80.125 21.875 81.2625 21.35 83.0125 21.175C84.7625 21 86.775 21.525 88.875 22.75L92.1125 14.6125V14.6125Z" fill="#263238"/>
</g>
<defs>
<filter id="filter0_d_1_907" x="0" y="0" width="183" height="55.25" filterUnits="userSpaceOnUse" color-interpolation-filters="sRGB">
<feFlood flood-opacity="0" result="BackgroundImageFix"/>
<feColorMatrix in="SourceAlpha" type="matrix" values="0 0 0 0 0 0 0 0 0 0 0 0 0 0 0 0 0 0 127 0" result="hardAlpha"/>
<feOffset dy="4"/>
<feGaussianBlur stdDeviation="2"/>
<feComposite in2="hardAlpha" operator="out"/>
<feColorMatrix type="matrix" values="0 0 0 0 0 0 0 0 0 0 0 0 0 0 0 0 0 0 0.25 0"/>
<feBlend mode="normal" in2="BackgroundImageFix" result="effect1_dropShadow_1_907"/>
<feBlend mode="normal" in="SourceGraphic" in2="effect1_dropShadow_1_907" result="shape"/>
</filter>
</defs>
</svg>
